<?xml version="1.0" encoding="utf-8"?>
<svg width="1272" height="1107" viewBox="0 0 1272 1107" fill="none" xmlns="http://www.w3.org/2000/svg">
<path opacity="0.8" d="M513.827 5.51568C348.468 28.8273 204.928 142.202 111.015 271.806C-126.492 576.582 123.634 1097.86 526.669 1105.47C936.967 1132.89 1232.52 667.947 1079.26 310.209C1000.04 89.5257 740.782 -25.8818 513.827 5.51568Z" fill="#FF9C8B"/>
<path fill-rule="evenodd" clip-rule="evenodd" d="M611.8 1097.7H110V751.8C110 675 172.2 612.8 249 612.8H472.8C549.6 612.8 611.8 675 611.8 751.8V1097.7Z" fill="#241C54"/>
<path fill-rule="evenodd" clip-rule="evenodd" d="M730.5 679.2C730.8 629 712 552.3 505.2 590.5C399.3 609.3 390.6 656.1 413.3 701.1C372.2 721.7 297.9 769.8 233.5 869.7C138.5 1016.9 230.2 1098.2 284.2 1098.2C338.2 1098.2 938.7 1093.5 938.7 1093.5C938.7 1093.5 962.1 861.9 730.5 679.2Z" fill="#FC2369"/>
<path fill-rule="evenodd" clip-rule="evenodd" d="M479.8 649.7L458.2 671.9C458.2 671.9 561 750.1 594.4 938.4C616.1 1060.8 608.7 1074.5 608.7 1074.5L672.4 1071.1C672.4 1071.1 636.9 867.6 659 803.2C681.1 738.8 660.9 666.5 645.9 654.8C630.9 643.1 479.8 649.7 479.8 649.7Z" fill="#FFF0E0"/>
<path fill-rule="evenodd" clip-rule="evenodd" d="M504.8 586.899L502.4 628.099L482 651.499C482 651.499 542.3 688.799 600 754.499C600 754.499 647.2 704.699 655.5 626.599L544.9 640.299L536.2 597.099L504.8 586.899Z" fill="#FFF0E0"/>
<path fill-rule="evenodd" clip-rule="evenodd" d="M501.805 586.725L499.465 626.899L479.738 649.528C478.522 650.923 478.847 653.077 480.422 654.051L481.029 654.433L482.511 655.383L482.854 655.606C484.862 656.912 487.196 658.471 489.826 660.277C497.066 665.249 505.106 671.096 513.754 677.79L514.794 678.598C540.644 698.698 566.497 722.091 590.62 748.521C593.022 751.153 595.398 753.806 597.746 756.479C598.91 757.805 600.963 757.844 602.177 756.563L602.746 755.945L603.345 755.276C603.763 754.806 604.221 754.28 604.718 753.698C606.696 751.383 608.895 748.655 611.259 745.526C617.997 736.607 624.73 726.251 631.012 714.564C645.285 688.009 655.113 658.629 658.483 626.916L658.497 626.743C658.588 624.899 656.99 623.392 655.131 623.622L547.291 636.979L539.141 596.507C538.927 595.445 538.157 594.581 537.127 594.246L505.727 584.046C503.858 583.439 501.919 584.763 501.805 586.725ZM507.568 590.952L533.605 599.41L541.959 640.892L542 641.067C542.38 642.508 543.771 643.462 545.269 643.277L652.084 630.045L652.06 630.241C648.405 659.62 639.055 686.927 625.727 711.723C619.597 723.127 613.031 733.227 606.472 741.909L605.983 742.553L605.023 743.803C603.44 745.846 601.948 747.686 600.568 749.317L600.005 749.976L598.673 748.482C597.473 747.141 596.266 745.806 595.052 744.476C570.684 717.777 544.582 694.16 518.478 673.861C509.338 666.754 500.847 660.567 493.223 655.331L491.304 654.021C489.808 653.007 488.42 652.08 487.144 651.242L486.546 650.849L504.661 630.071C505.098 629.57 505.356 628.938 505.395 628.274L507.568 590.952Z" fill="#241C54"/>
<path fill-rule="evenodd" clip-rule="evenodd" d="M659.2 976.799C675.5 980.599 688.6 984.199 692.2 986.899C703.9 995.799 752.6 1043.4 754.3 1051.2C756.1 1059 741.8 1063.3 730 1051.3L695.3 1018.2C695.3 1018.2 730.6 1058.4 733.4 1064.6C736.2 1070.8 722.3 1081.6 701.9 1055.7C681.5 1029.8 678.2 1029.6 678.2 1029.6C678.2 1029.6 701.5 1062.1 704.6 1069.5C707.7 1076.9 688 1083.8 670 1049.7L562.1 1045L568.4 959.299C568.5 959.299 622.2 968.299 659.2 976.799Z" fill="#FFF0E0"/>
<path fill-rule="evenodd" clip-rule="evenodd" d="M568.4 956.299C571.052 956.299 628.181 966.761 657.257 973.282L659.881 973.877L663.782 974.797C680.387 978.762 690.237 981.786 693.881 984.412L694.017 984.511L694.43 984.83C700.623 989.654 715.18 1003.28 728.667 1016.88L731.589 1019.84C746.85 1035.39 756.316 1046.36 757.223 1050.52C758.563 1056.33 754.126 1060.91 747.59 1061.65C742.611 1062.22 737.086 1060.62 732.074 1057.03L731.617 1056.7L732.15 1057.4C734.104 1059.99 735.405 1061.9 736.006 1063.09L736.134 1063.36C738.643 1068.92 733.693 1074.88 726.476 1075.18C720.201 1075.45 713.01 1071.89 705.523 1064.36L704.943 1063.77L705.078 1063.99C706.027 1065.61 706.738 1066.94 707.194 1067.94L707.367 1068.34C708.698 1071.52 707.587 1074.85 704.724 1076.8C702.145 1078.56 698.482 1079.02 694.519 1078.08C685.713 1075.99 676.451 1067.6 668.341 1052.94L668.167 1052.62L561.97 1048C560.338 1047.92 559.074 1046.57 559.101 1044.95L559.108 1044.78L565.408 959.079C565.524 957.512 566.829 956.299 568.4 956.299ZM571.151 962.779L565.318 1042.13L670.131 1046.7C671.129 1046.75 672.035 1047.28 672.555 1048.13L672.653 1048.3C680.257 1062.7 688.647 1070.52 695.906 1072.24C700.259 1073.28 702.337 1071.86 701.833 1070.66C700.743 1068.05 696.48 1061.29 690.157 1051.98L689.092 1050.41C686.541 1046.67 683.83 1042.77 681.098 1038.88L677.973 1034.45L675.762 1031.35C674.29 1029.29 675.86 1026.45 678.382 1026.6C681.189 1026.77 687.561 1032.85 701.922 1050.89L704.257 1053.84C712.785 1064.67 720.538 1069.43 726.225 1069.19C729.578 1069.05 731.223 1067.07 730.666 1065.83L730.583 1065.66C729.374 1063.29 722.903 1055.12 713.308 1043.73L712.147 1042.35L709.607 1039.36C707.035 1036.33 704.378 1033.24 701.698 1030.13L697.485 1025.27L693.046 1020.18C690.56 1017.35 694.478 1013.51 697.242 1015.91L697.371 1016.03L732.139 1049.2C736.914 1054.05 742.42 1056.2 746.91 1055.69C750.242 1055.31 751.8 1053.71 751.369 1051.84C750.109 1046.06 704.621 1000.12 690.4 989.299L690.193 989.152C687.327 987.214 677.615 984.273 662.182 980.585L658.51 979.718L655.593 979.055C640.924 975.75 623.007 972.175 603.423 968.549L594.289 966.879C590.768 966.243 587.111 965.591 583.693 964.985L571.151 962.779Z" fill="#241C54"/>
<path fill-rule="evenodd" clip-rule="evenodd" d="M379.2 1097.7C379.2 1097.7 552.3 1086 571.7 1081C591.1 1076 583.9 1061.8 598 1056.4C612.1 1051 616.5 1046.6 616.5 1046.6C598.3 1017.5 616.5 969.399 616.5 969.399C616.5 969.399 611.7 968.099 597 965.099C582.3 962.099 587 946.899 567.1 945.099C547.1 943.399 375.8 962.899 375.8 962.899" fill="#FC2369"/>
<path fill-rule="evenodd" clip-rule="evenodd" d="M465.11 950.227L476.769 949.041C526.596 944.022 559.04 941.403 567.37 942.111C576.961 942.979 581.613 946.153 586.637 953.181L587.557 954.49C591.066 959.504 593.078 961.237 597.6 962.16L600.925 962.844C605.822 963.86 609.796 964.727 612.936 965.451L614.95 965.923L616.605 966.328C616.933 966.41 617.156 966.469 617.284 966.503C618.936 966.951 619.867 968.678 619.365 970.289L618.983 971.357L618.746 972.041C618.542 972.636 618.323 973.295 618.093 974.014C617.165 976.903 616.236 980.146 615.368 983.665C612.438 995.552 610.918 1007.55 611.551 1018.66C612.135 1028.92 614.549 1037.82 619.044 1045.01C619.785 1046.19 619.609 1047.73 618.621 1048.72L618.448 1048.89C618.218 1049.1 617.887 1049.38 617.445 1049.73C616.566 1050.42 615.464 1051.19 614.119 1052.02C610.513 1054.26 605.78 1056.59 599.772 1058.93L599.073 1059.2C594.895 1060.8 593.172 1062.72 590.674 1067.81L589.693 1069.84L589.312 1070.61C585.669 1077.78 581.467 1081.58 572.449 1083.9L572.028 1084.01C564.834 1085.72 541.585 1088.17 505.401 1091.23L495.662 1092.04C489.56 1092.54 483.186 1093.05 476.567 1093.58L468.175 1094.23C452.191 1095.47 435.487 1096.72 418.674 1097.93L402.887 1099.06L384.466 1100.35L379.402 1100.69C377.749 1100.8 376.319 1099.55 376.207 1097.9C376.099 1096.31 377.257 1094.92 378.822 1094.72L398.492 1093.36L409.34 1092.59C429.13 1091.17 448.919 1089.71 467.71 1088.25L479.677 1087.31C486.792 1086.75 493.609 1086.19 500.094 1085.65L509.195 1084.88C543.092 1081.98 565.027 1079.62 570.951 1078.09C578.26 1076.21 581.167 1073.53 584.133 1067.55L585.301 1065.14C588.354 1058.94 590.923 1055.98 596.563 1053.74L596.927 1053.6C602.924 1051.3 607.544 1049.04 610.957 1046.92C611.472 1046.6 611.94 1046.3 612.363 1046.01L612.589 1045.86L612.316 1045.35C608.395 1038 606.238 1029.38 605.607 1019.76L605.56 1019C604.889 1007.21 606.481 994.649 609.543 982.229C610.37 978.875 611.251 975.759 612.138 972.941L612.59 971.529L609.896 970.912C606.358 970.115 601.892 969.159 596.4 968.038C590.295 966.793 587.211 964.304 583.173 958.682L581.986 956.995C577.791 951.034 574.601 948.79 566.846 948.088C558.858 947.409 524.393 950.236 472.702 955.483L463.363 956.438C461.785 956.6 460.196 956.765 458.596 956.931C443.494 958.497 427.99 960.152 412.65 961.826L396.576 963.593L376.139 965.88C374.493 966.067 373.007 964.885 372.819 963.238C372.639 961.651 373.732 960.212 375.286 959.943L375.596 959.903L393.679 957.877C395.891 957.631 398.176 957.379 400.528 957.119C417.663 955.23 435.187 953.341 452.292 951.554L457.977 950.963C460.379 950.714 462.757 950.468 465.11 950.227Z" fill="#241C54"/>
<path fill-rule="evenodd" clip-rule="evenodd" d="M384.515 911.005C384.677 909.356 386.145 908.151 387.794 908.313L388.059 908.343C388.5 908.398 389.133 908.5 389.934 908.663C391.519 908.986 393.271 909.456 395.15 910.103C400.485 911.939 405.812 914.818 410.779 918.968C420.743 927.291 427.949 939.611 431.245 956.525C431.562 958.152 430.5 959.727 428.874 960.044C427.248 960.361 425.672 959.299 425.356 957.673C422.322 942.103 415.831 931.006 406.933 923.573C402.557 919.917 397.873 917.385 393.198 915.776C391.573 915.217 390.072 914.814 388.737 914.542L388.11 914.422C387.924 914.388 387.762 914.361 387.624 914.34L387.206 914.285C385.557 914.122 384.352 912.654 384.515 911.005Z" fill="#241C54"/>
<path fill-rule="evenodd" clip-rule="evenodd" d="M600.3 1058.4C615.5 1052.7 620.4 1048.1 620.4 1048.1C600.7 1017.3 620.4 966.399 620.4 966.399C620.4 966.399 615.2 964.999 599.3 961.799C592.9 960.499 589.9 957.099 587.2 953.399C554.5 990.499 574.1 1055.6 582.9 1079.2C590.5 1072.5 588.8 1062.8 600.3 1058.4Z" fill="#241C54"/>
<path fill-rule="evenodd" clip-rule="evenodd" d="M730.5 679.199C730.4 688.599 729.7 696.999 729.4 703.599C727.4 749.699 705.1 774.199 696.2 792.599C725.7 774.399 752.7 735.199 766 709.399C755 699.199 743.1 689.099 730.5 679.199Z" fill="#241C54"/>
<path fill-rule="evenodd" clip-rule="evenodd" d="M513.9 802.699C498.1 795.399 437.7 749.299 413.3 701.199C397.5 709.099 376.8 721.099 353.6 738.599C370.7 748.399 469.1 803.699 514.2 803.299C514.1 802.999 514 802.799 513.9 802.699Z" fill="#241C54"/>
<path fill-rule="evenodd" clip-rule="evenodd" d="M523.668 784.994C525.597 784.067 527.9 784.825 528.911 786.684L529.121 787.11L529.933 788.835L530.674 790.431C531.889 793.065 533.231 796.042 534.671 799.317L535.033 800.143C539.538 810.431 544.043 821.446 548.25 832.752C552.615 844.484 556.409 855.871 559.465 866.674C563.413 880.625 566.028 893.238 567.082 904.218C567.293 906.417 565.681 908.37 563.482 908.581C561.283 908.792 559.329 907.181 559.118 904.982C558.116 894.539 555.594 882.376 551.768 868.852C548.774 858.271 545.047 847.084 540.752 835.542C536.602 824.387 532.153 813.509 527.705 803.352L526.646 800.948C525.49 798.339 524.405 795.942 523.409 793.782L522.362 791.531L521.794 790.332C520.838 788.341 521.676 785.951 523.668 784.994Z" fill="#241C54"/>
<path fill-rule="evenodd" clip-rule="evenodd" d="M680.102 787.703C682.187 788.185 683.51 790.217 683.138 792.3L682.625 794.621L682.149 796.846C681.901 798.023 681.639 799.294 681.365 800.655C680.058 807.142 678.75 814.305 677.529 821.932C674.83 838.797 672.949 855.445 672.252 870.978C671.703 883.193 671.913 894.31 672.976 904.066C673.216 906.262 671.629 908.237 669.433 908.476C667.237 908.715 665.263 907.129 665.023 904.933C663.912 894.731 663.694 883.216 664.26 870.619C664.972 854.75 666.886 837.811 669.63 820.667L670.098 817.788C671.121 811.6 672.195 805.739 673.273 800.318L673.522 799.075C673.801 797.689 674.069 796.394 674.322 795.193L674.965 792.206L675.303 790.698C675.801 788.545 677.95 787.204 680.102 787.703Z" fill="#241C54"/>
<path fill-rule="evenodd" clip-rule="evenodd" d="M996 637.3H989.3C986.5 637.3 984.3 635.1 984.3 632.3V619.5C984.3 616.7 986.5 614.5 989.3 614.5H996C998.8 614.5 1001 616.7 1001 619.5V632.3C1001 635.1 998.8 637.3 996 637.3Z" fill="#FDCA9C"/>
<path fill-rule="evenodd" clip-rule="evenodd" d="M972.9 637.3H868.3C865.5 637.3 863.3 635.1 863.3 632.3V619.5C863.3 616.7 865.5 614.5 868.3 614.5H972.9C975.7 614.5 977.9 616.7 977.9 619.5V632.3C977.9 635.1 975.7 637.3 972.9 637.3Z" fill="#241C54"/>
<path fill-rule="evenodd" clip-rule="evenodd" d="M983.3 743.4H868.3C865.5 743.4 863.3 741.2 863.3 738.4V725.6C863.3 722.8 865.5 720.6 868.3 720.6H983.3C986.1 720.6 988.3 722.8 988.3 725.6V738.4C988.3 741.2 986.1 743.4 983.3 743.4Z" fill="#241C54"/>
<path fill-rule="evenodd" clip-rule="evenodd" d="M1083.8 708.1H899.9C897.1 708.1 894.9 705.9 894.9 703.1V690.3C894.9 687.5 897.1 685.3 899.9 685.3H1083.8C1086.6 685.3 1088.8 687.5 1088.8 690.3V703.1C1088.8 705.9 1086.5 708.1 1083.8 708.1Z" fill="#FDCA9C"/>
<path fill-rule="evenodd" clip-rule="evenodd" d="M1199.4 708.1H1104.7C1101.9 708.1 1099.7 705.9 1099.7 703.1V690.3C1099.7 687.5 1101.9 685.3 1104.7 685.3H1199.4C1202.2 685.3 1204.4 687.5 1204.4 690.3V703.1C1204.4 705.9 1202.1 708.1 1199.4 708.1Z" fill="#FDCA9C"/>
<path fill-rule="evenodd" clip-rule="evenodd" d="M1234.8 672.8H1228.1C1225.3 672.8 1223.1 670.6 1223.1 667.8V655C1223.1 652.2 1225.3 650 1228.1 650H1234.8C1237.6 650 1239.8 652.2 1239.8 655V667.8C1239.8 670.5 1237.6 672.8 1234.8 672.8Z" fill="#241C54"/>
<path fill-rule="evenodd" clip-rule="evenodd" d="M1058.8 672.7H868.3C865.5 672.7 863.3 670.5 863.3 667.7V654.9C863.3 652.1 865.5 649.9 868.3 649.9H1058.8C1061.6 649.9 1063.8 652.1 1063.8 654.9V667.7C1063.8 670.5 1061.5 672.7 1058.8 672.7Z" fill="#241C54"/>
<path fill-rule="evenodd" clip-rule="evenodd" d="M1118 637.3H1013.4C1010.6 637.3 1008.4 635.1 1008.4 632.3V619.5C1008.4 616.7 1010.6 614.5 1013.4 614.5H1118C1120.8 614.5 1123 616.7 1123 619.5V632.3C1123 635.1 1120.7 637.3 1118 637.3Z" fill="#241C54"/>
<path fill-rule="evenodd" clip-rule="evenodd" d="M1209.2 672.8H1077.8C1075 672.8 1072.8 670.6 1072.8 667.8V654.8C1072.8 652 1075 649.8 1077.8 649.8H1209.2C1212 649.8 1214.2 652 1214.2 654.8V667.8C1214.2 670.5 1211.9 672.8 1209.2 672.8Z" fill="#FC2369"/>
<path fill-rule="evenodd" clip-rule="evenodd" d="M1060 1096.7C1065.1 1096.7 1069.5 1093.2 1070.7 1088.2L1131.1 832.6C1132.7 825.7 1127.5 819.1 1120.4 819.1H731.6C726.5 819.1 722.1 822.6 720.9 827.6L666.8 1056.4H525.9C525.9 1056.4 518.1 1096.7 563.6 1096.7" fill="#241C54"/>
<path fill-rule="evenodd" clip-rule="evenodd" d="M897.8 917.499C897.8 917.499 915.7 913.199 916.8 928.599C916.8 928.599 902.6 934.399 897.8 917.499Z" fill="#FFF0E0"/>
<path fill-rule="evenodd" clip-rule="evenodd" d="M930.5 957.4C928.7 956.2 926.8 955.4 924.8 954.7C927.3 952 928.9 948.4 928.9 944.6C928.9 940.4 926.9 937.1 923.9 935.5C925.6 930.4 928.4 923.1 930.5 920.5C931.6 919.2 931.4 917.3 930.2 916.3C928.9 915.2 927 915.4 926 916.6C922.8 920.3 919.5 929.6 917.9 934.5C917.8 934.5 917.7 934.5 917.6 934.5C911.4 935.6 906.4 942 906.4 948.7C906.4 950.9 907 952.8 907.9 954.4C901 956.1 894.2 959.8 889 965.4C877.7 977.4 878 993.4 889.6 1001C901.2 1008.6 919.8 1005.1 931.1 993C942.4 981 942.1 965 930.5 957.4Z" fill="#FFF0E0"/>
<path fill-rule="evenodd" clip-rule="evenodd" d="M164.8 986.4C148.508 986.4 135.3 999.608 135.3 1015.9C135.3 1032.19 148.508 1045.4 164.8 1045.4C181.093 1045.4 194.3 1032.19 194.3 1015.9C194.3 999.608 181.093 986.4 164.8 986.4ZM164.8 992.4C177.779 992.4 188.3 1002.92 188.3 1015.9C188.3 1028.88 177.779 1039.4 164.8 1039.4C151.822 1039.4 141.3 1028.88 141.3 1015.9C141.3 1002.92 151.822 992.4 164.8 992.4Z" fill="#FFF0E0"/>
<path fill-rule="evenodd" clip-rule="evenodd" d="M252.3 1095.7H201.7C185.1 1095.7 171.7 1082.3 171.7 1065.7V979.9H282.3V1065.7C282.3 1082.3 268.8 1095.7 252.3 1095.7Z" fill="#FDCA9C"/>
<path fill-rule="evenodd" clip-rule="evenodd" d="M194.4 1030.6L214.4 1018.6C214.7 1018.4 215 1018.3 215.4 1018.3C216 1018.3 216.4 1018.5 216.8 1018.9C217.2 1019.3 217.4 1019.8 217.4 1020.3C217.4 1021 217.1 1021.6 216.4 1022.1L199.2 1032.4L216.4 1042.7C217.1 1043.2 217.4 1043.7 217.4 1044.5C217.4 1045.1 217.2 1045.5 216.8 1045.9C216.4 1046.3 215.9 1046.5 215.4 1046.5C215 1046.5 214.7 1046.4 214.4 1046.2L194.4 1034.2C193.7 1033.7 193.3 1033.1 193.3 1032.4C193.3 1031.7 193.7 1031.1 194.4 1030.6Z" fill="#241C54"/>
<path fill-rule="evenodd" clip-rule="evenodd" d="M238.2 1010.9C238.6 1010.5 239.1 1010.3 239.6 1010.3C240.1 1010.3 240.6 1010.5 241 1010.9C241.4 1011.3 241.6 1011.8 241.6 1012.3C241.6 1012.6 241.5 1012.9 241.4 1013.2L225.3 1053.4C225.2 1053.6 225.1 1053.8 224.9 1054C224.5 1054.4 224 1054.6 223.5 1054.6C223 1054.6 222.5 1054.4 222.1 1054C221.7 1053.6 221.5 1053.1 221.5 1052.6C221.5 1052.3 221.6 1052 221.7 1051.7L237.8 1011.5C237.8 1011.3 238 1011.1 238.2 1010.9Z" fill="#241C54"/>
<path fill-rule="evenodd" clip-rule="evenodd" d="M269.8 1032.4C269.8 1033.1 269.4 1033.7 268.7 1034.2L248.7 1046.2C248.4 1046.4 248.1 1046.5 247.7 1046.5C247.1 1046.5 246.7 1046.3 246.3 1045.9C245.9 1045.5 245.7 1045 245.7 1044.5C245.7 1043.8 246 1043.2 246.7 1042.7L263.9 1032.4L246.7 1022.1C246 1021.6 245.7 1021.1 245.7 1020.3C245.7 1019.7 245.9 1019.3 246.3 1018.9C246.7 1018.5 247.2 1018.3 247.7 1018.3C248.1 1018.3 248.4 1018.4 248.7 1018.6L268.7 1030.6C269.4 1031.1 269.8 1031.7 269.8 1032.4Z" fill="#241C54"/>
<path fill-rule="evenodd" clip-rule="evenodd" d="M227.6 949.4C230.4 979.6 176 909.4 183.6 868.8C191.2 828.2 220.4 829.8 232.6 806.9C240 793.1 239.4 784.1 237.8 779.1C237.3 777.5 239 776 240.5 776.8C254.8 784.6 292.2 810 279.8 858.1C259.3 929.6 221.9 887.9 227.6 949.4Z" fill="#FFF0E0"/>
<path fill-rule="evenodd" clip-rule="evenodd" d="M490.5 509C490.5 509 452.1 509.7 458.9 544.1C465.8 578.5 508.3 558.6 508.3 558.6L502.6 509.7L490.5 509Z" fill="#FFF0E0"/>
<path fill-rule="evenodd" clip-rule="evenodd" d="M490.673 506.005C490.597 506.001 490.521 505.999 490.445 506L490.037 506.012C488.874 506.057 487.129 506.21 484.974 506.546C480.943 507.175 476.907 508.248 473.109 509.886C459.541 515.737 452.485 527.116 455.957 544.682C459.044 560.073 469.011 567.13 483.089 567.322C489.02 567.402 495.288 566.265 501.526 564.328C503.359 563.758 505.077 563.153 506.647 562.542L507.311 562.28C508.371 561.855 509.14 561.519 509.572 561.317C510.741 560.769 511.429 559.535 511.28 558.253L505.58 509.353C505.411 507.906 504.227 506.789 502.773 506.705L490.673 506.005ZM490.459 512.002L499.912 512.549L505.06 556.717L505.08 556.71C503.476 557.352 501.682 557.996 499.746 558.598C494.062 560.364 488.385 561.393 483.17 561.322C471.749 561.167 464.329 555.914 461.841 543.51C458.956 528.914 464.366 520.19 475.484 515.396C478.775 513.977 482.334 513.03 485.898 512.475C487.148 512.28 488.306 512.149 489.338 512.069L490.03 512.022L490.459 512.002Z" fill="#241C54"/>
<path fill-rule="evenodd" clip-rule="evenodd" d="M600 400.6C610.1 399.8 679.5 395.4 687.1 453.3C694.7 511.2 686.5 575.1 680.1 604.3C673.7 633.5 540.8 620 533.3 617.4C525.8 614.8 516.8 606 516.8 606L498.6 517.1C498.7 517.1 491.2 409.6 600 400.6Z" fill="#FFF0E0"/>
<path fill-rule="evenodd" clip-rule="evenodd" d="M599.763 397.609C552.845 401.49 523.101 423.363 507.431 457.293C501.991 469.072 498.598 481.636 496.848 494.378C495.722 502.582 495.41 509.624 495.546 515.407L495.577 516.468L495.597 517.016L495.598 517.166C495.604 517.342 495.624 517.521 495.661 517.701L513.861 606.601C513.981 607.188 514.274 607.726 514.702 608.145L515.298 608.711L515.883 609.252C516.191 609.533 516.52 609.83 516.87 610.139C518.535 611.612 520.326 613.085 522.183 614.465C524.393 616.108 526.553 617.511 528.626 618.603C529.9 619.275 531.131 619.823 532.317 620.234C538.337 622.321 576.899 625.665 606.222 625.772L607.108 625.775C651.79 625.839 679.722 620.035 683.03 604.942L683.404 603.209C687.002 586.248 690.177 563.323 691.842 539.774C693.993 509.364 693.586 479.664 690.074 452.909C686.548 426.043 670.208 409.735 645.372 402.071C636.391 399.299 626.774 397.822 616.943 397.358C610.353 397.047 604.836 397.207 599.763 397.609ZM616.66 403.351C626.021 403.793 635.15 405.195 643.603 407.804C666.358 414.827 680.933 429.372 684.125 453.69C687.58 480.008 687.982 509.316 685.857 539.35C684.154 563.429 680.857 586.834 677.169 603.657C674.838 614.296 648.185 619.833 607.117 619.775L605.379 619.768C576.808 619.6 539.421 616.346 534.282 614.565C533.402 614.26 532.444 613.834 531.423 613.295C529.652 612.362 527.742 611.121 525.762 609.649C524.053 608.379 522.391 607.012 520.846 605.646L520.224 605.09L519.549 604.471L501.591 516.752L501.56 515.845C501.395 510.259 501.675 503.333 502.793 495.194C504.466 483.005 507.707 471.006 512.878 459.808C527.664 427.794 555.55 407.287 600.247 403.589C605.077 403.207 610.353 403.053 616.66 403.351Z" fill="#241C54"/>
<path fill-rule="evenodd" clip-rule="evenodd" d="M511.3 516.3C517.7 522.7 534.9 559.5 539.1 576.6C539.1 576.6 581.7 562.2 642.8 561.3C642.8 561.3 676.1 562 689.4 565.9C689.4 565.9 686.5 626.6 659.5 658.1C632.5 689.5 575.5 680.7 548.7 661.8C521.9 642.9 517.5 633.9 511.3 613.6C505.1 593.4 488.7 517.9 488.7 517.9L511.3 516.3Z" fill="#C6C2CF"/>
<path fill-rule="evenodd" clip-rule="evenodd" d="M493.9 529.3C493.9 529.3 475.8 501.3 468.9 472.3C462.3 445 475 416.4 500.3 404.1C521.5 393.9 537.2 401.9 537.2 401.9C537.2 401.9 514.7 363.7 548.4 329.9C560.3 318 576.7 311.4 593.5 311.9C634.6 313.1 647.4 347.9 647.4 347.9C647.4 347.9 691.4 267 781.7 314.9C790.8 319.7 801.1 333.2 806 342.3C835.8 397.3 737.5 462.4 686.4 467.5C630.2 473.2 597.3 463.8 579.2 450.1C592.6 458.2 577.5 542.2 493.9 529.3Z" fill="#241C54"/>
<path fill-rule="evenodd" clip-rule="evenodd" d="M602.558 599.452C604.673 599.108 606.669 600.49 607.111 602.562L607.179 602.929C607.24 603.229 607.362 603.727 607.557 604.36C607.962 605.675 608.52 606.988 609.238 608.186C611.517 611.988 614.728 613.759 619.803 612.861C621.979 612.476 624.054 613.928 624.439 616.103C624.823 618.279 623.372 620.354 621.196 620.739C612.591 622.261 606.253 618.764 602.377 612.3C601.3 610.504 600.495 608.609 599.912 606.716C599.557 605.566 599.349 604.641 599.252 604.042C598.897 601.861 600.378 599.806 602.558 599.452Z" fill="#241C54"/>
<path fill-rule="evenodd" clip-rule="evenodd" d="M644.049 534.025C646.178 533.783 648.105 535.26 648.447 537.351L648.474 537.549L654.474 590.449C654.783 593.173 652.329 595.373 649.681 594.815L649.5 594.772L630.9 589.972C628.761 589.42 627.475 587.239 628.027 585.1C628.562 583.028 630.626 581.756 632.699 582.18L632.899 582.226L645.87 585.572L640.525 538.45C640.284 536.322 641.76 534.394 643.851 534.052L644.049 534.025Z" fill="#241C54"/>
<path fill-rule="evenodd" clip-rule="evenodd" d="M665 547.3C667.982 547.3 670.4 543.539 670.4 538.9C670.4 534.261 667.982 530.5 665 530.5C662.018 530.5 659.6 534.261 659.6 538.9C659.6 543.539 662.018 547.3 665 547.3Z" fill="#241C54"/>
<path fill-rule="evenodd" clip-rule="evenodd" d="M612.8 546.4C615.782 546.4 618.2 542.639 618.2 538C618.2 533.36 615.782 529.6 612.8 529.6C609.818 529.6 607.4 533.36 607.4 538C607.4 542.639 609.818 546.4 612.8 546.4Z" fill="#241C54"/>
<path fill-rule="evenodd" clip-rule="evenodd" d="M590.89 491.172C596.795 486.847 604.024 484.694 612.391 485.944C614.576 486.27 616.083 488.306 615.756 490.491C615.43 492.676 613.394 494.183 611.209 493.856C605.076 492.94 599.918 494.476 595.617 497.626C594.403 498.515 593.358 499.467 592.491 500.409L592.217 500.712C591.924 501.044 591.724 501.293 591.619 501.436L591.58 501.49C590.315 503.302 587.821 503.745 586.01 502.48C584.199 501.215 583.756 498.721 585.021 496.91L585.21 496.648C585.528 496.222 585.992 495.656 586.605 494.991C587.809 493.683 589.236 492.384 590.89 491.172Z" fill="#241C54"/>
<path fill-rule="evenodd" clip-rule="evenodd" d="M662.484 484.754C665.687 484.252 669.088 484.236 672.393 485.053C678.043 486.45 682.332 490.101 684.222 496.219C684.874 498.329 683.692 500.569 681.581 501.221C679.536 501.853 677.37 500.763 676.644 498.775L676.578 498.58C675.567 495.305 673.536 493.576 670.474 492.819C668.353 492.295 665.963 492.307 663.721 492.658L663.217 492.743C663.02 492.779 662.862 492.811 662.747 492.837L662.607 492.871C660.469 493.427 658.285 492.144 657.729 490.006C657.173 487.868 658.456 485.684 660.594 485.128L660.898 485.054C661.294 484.962 661.83 484.856 662.484 484.754Z" fill="#241C54"/>
<path fill-rule="evenodd" clip-rule="evenodd" d="M1268.4 1095.2C1270.06 1095.2 1271.4 1096.54 1271.4 1098.2C1271.4 1099.8 1270.15 1101.1 1268.58 1101.2L1268.4 1101.2H3.6001C1.94324 1101.2 0.600098 1099.86 0.600098 1098.2C0.600098 1096.6 1.84902 1095.3 3.42382 1095.21L3.6001 1095.2H1268.4Z" fill="#241C54"/>
</svg>
